<?xml version="1.0" encoding="utf-8"?>
<!-- Generator: Adobe Illustrator 15.1.0, SVG Export Plug-In . SVG Version: 6.00 Build 0)  -->
<!DOCTYPE svg PUBLIC "-//W3C//DTD SVG 1.1//EN" "http://www.w3.org/Graphics/SVG/1.1/DTD/svg11.dtd">
<svg version="1.1" id="Layer_1" xmlns="http://www.w3.org/2000/svg" xmlns:xlink="http://www.w3.org/1999/xlink" x="0px" y="0px"
	 width="612px" height="612px" viewBox="0 0 612 612" enable-background="new 0 0 612 612" xml:space="preserve">
<g id="space">
	
		<linearGradient id="SVGID_1_" gradientUnits="userSpaceOnUse" x1="463.2764" y1="854.3428" x2="149.7237" y2="115.6592" gradientTransform="matrix(1 0 0 1 0 -179)">
		<stop  offset="0" style="stop-color:#3D0033"/>
		<stop  offset="1" style="stop-color:#000000"/>
	</linearGradient>
	<rect x="0.5" fill="url(#SVGID_1_)" width="612" height="612"/>
</g>
<g id="stars">
	<g>
		<path fill="#7E9D99" d="M417.12,3.693h5.093V9.26h-5.093V3.693z M417.12,14.31h5.093v5.598h-5.093V14.31z"/>
		<path fill="#7E9D99" d="M473.537,154.87h5.095v5.598h-5.095V154.87z"/>
		<path fill="#7E9D99" d="M454.73,284.816h5.095v5.565h-5.095V284.816z M454.73,295.432h5.095v5.599h-5.095V295.432z"/>
		<path fill="#7E9D99" d="M548.759,495.659h5.095v5.563h-5.095V495.659z M548.759,506.273h5.095v5.598h-5.095V506.273z"/>
	</g>
	<g>
		<path fill="#CCB69F" d="M3.398,49.449h5.094v5.599H3.398V49.449z"/>
		<path fill="#CCB69F" d="M153.842,84.59h5.094v5.599h-5.094V84.59z"/>
		<path fill="#CCB69F" d="M210.259,73.975h5.094v5.566h-5.094V73.975z M210.259,84.59h5.094v5.599h-5.094V84.59z"/>
		<path fill="#CCB69F" d="M153.842,154.87h5.094v5.598h-5.094V154.87z"/>
		<path fill="#CCB69F" d="M229.064,179.396h5.093v5.566h-5.093V179.396z M229.064,190.012h5.093v5.599h-5.093V190.012z"/>
		<path fill="#CCB69F" d="M41.009,225.151h5.094v5.597h-5.094V225.151z"/>
		<path fill="#CCB69F" d="M210.259,225.151h5.094v5.597h-5.094V225.151z"/>
		<path fill="#CCB69F" d="M135.037,330.572h5.094v5.598h-5.094V330.572z"/>
		<path fill="#CCB69F" d="M59.814,435.993h5.095v5.598h-5.095V435.993z"/>
		<path fill="#CCB69F" d="M172.647,565.938h5.095v5.567h-5.095V565.938z M172.647,576.556h5.095v5.599h-5.095V576.556z"/>
		<rect x="247.87" y="14.31" fill="#CCB69F" width="5.094" height="5.598"/>
	</g>
	<g>
		<path fill="#815366" d="M97.425,260.292h5.095v5.597h-5.095V260.292z"/>
		<path fill="#815366" d="M567.564,355.098h5.093v5.566h-5.093V355.098z M567.564,365.712h5.093v5.597h-5.093V365.712z"/>
		<path fill="#815366" d="M586.371,460.518h5.093v5.567h-5.093V460.518z M586.371,471.134h5.093v5.598h-5.093V471.134z"/>
		<path fill="#815366" d="M435.926,565.938h5.094v5.567h-5.094V565.938z M435.926,576.556h5.094v5.599h-5.094V576.556z"/>
	</g>
	<g>
		<path fill="#CCB6CC" d="M473.537,14.31h5.095v5.598h-5.095V14.31z"/>
		<path fill="#CCB6CC" d="M266.676,84.59h5.094v5.599h-5.094V84.59z"/>
		<path fill="#CCB6CC" d="M296.553,77.193l-6.298,3.4l6.314,3.432l-1.343,2.317l-5.962-3.6v6.666h-2.701v-6.65
			c-0.966,0.58-1.961,1.181-2.989,1.8c-1.027,0.62-2.019,1.215-2.973,1.784l-1.327-2.317l6.329-3.432l-6.315-3.4l1.313-2.334
			l5.962,3.584v-6.649h2.701v6.649c0.976-0.579,1.975-1.181,2.997-1.801c1.022-0.618,2.011-1.215,2.965-1.783L296.553,77.193z"/>
		<path fill="#CCB6CC" d="M435.926,84.59h5.094v5.599h-5.094V84.59z"/>
		<path fill="#CCB6CC" d="M511.146,73.975h5.096v5.566h-5.096V73.975z M511.146,84.59h5.096v5.599h-5.096V84.59z"/>
		<path fill="#CCB6CC" d="M567.564,119.73h5.093v5.598h-5.093V119.73z"/>
		<path fill="#CCB6CC" d="M586.371,154.87h5.093v5.598h-5.093V154.87z"/>
		<path fill="#CCB6CC" d="M567.564,214.536h5.093v5.565h-5.093V214.536z M567.564,225.151h5.093v5.597h-5.093V225.151z"/>
		<path fill="#CCB6CC" d="M511.146,295.432h5.096v5.599h-5.096V295.432z"/>
		<path fill="#CCB6CC" d="M529.952,284.816h5.094v5.565h-5.094V284.816z M529.952,295.432h5.094v5.599h-5.094V295.432z"/>
		<path fill="#CCB6CC" d="M548.759,365.712h5.095v5.597h-5.095V365.712z"/>
		<path fill="#CCB6CC" d="M586.371,400.852h5.093v5.602h-5.093V400.852z"/>
		<path fill="#CCB6CC" d="M454.73,435.993h5.095v5.598h-5.095V435.993z"/>
		<path fill="#CCB6CC" d="M417.12,460.518h5.093v5.567h-5.093V460.518z M417.12,471.134h5.093v5.598h-5.093V471.134z"/>
		<path fill="#CCB6CC" d="M567.564,471.134h5.093v5.598h-5.093V471.134z"/>
		<path fill="#CCB6CC" d="M398.314,506.273h5.094v5.598h-5.094V506.273z"/>
		<path fill="#CCB6CC" d="M605.176,506.273h5.094v5.598h-5.094V506.273z"/>
		<path fill="#CCB6CC" d="M417.12,576.556h5.093v5.599h-5.093V576.556z"/>
		<path fill="#CCB6CC" d="M492.342,576.556h5.097v5.599h-5.097V576.556z"/>
	</g>
	<g>
		<path fill="#816053" d="M59.814,214.536h5.095v5.565h-5.095V214.536z M59.814,225.151h5.095v5.597h-5.095V225.151z"/>
		<path fill="#816053" d="M191.453,225.151h5.094v5.597h-5.094V225.151z"/>
		<path fill="#816053" d="M97.438,260.217h5.094v5.599h-5.094V260.217z"/>
	</g>
</g>
<g id="phone">
	<g>
		<path fill="#FF3000" d="M109.395,57.871v3.05H90.589v-3.05H109.395z"/>
		<path fill="#FF3000" d="M128.201,57.871v3.05h-18.806v-3.05H128.201z"/>
		<path fill="#FF3000" d="M147.007,57.871v3.05h-18.806v-3.05H147.007z"/>
		<path fill="#FF3000" d="M165.811,57.871v3.05h-18.804v-3.05H165.811z"/>
		<path fill="#FF3000" d="M184.616,57.871v3.05h-18.805v-3.05H184.616z"/>
		<path fill="#FF3000" d="M82.903,66.381v31.236h-3.462V66.381H82.903z"/>
		<path fill="#FF3000" d="M82.903,101.521v31.235h-3.462v-31.235H82.903z"/>
		<path fill="#FF3000" d="M82.903,136.662v31.236h-3.462v-31.236H82.903z"/>
	</g>
	<g>
		<rect x="429.089" y="57.871" fill="#FF3333" width="94.027" height="3.05"/>
		<rect x="530.771" y="66.381" fill="#FF3333" width="3.463" height="31.236"/>
		<path fill="#FF3333" d="M534.234,101.521v31.235h-3.463v-31.235H534.234z"/>
		<path fill="#FF3333" d="M534.234,136.662v31.236h-3.463v-31.236H534.234z"/>
		<path fill="#FF3333" d="M308.568,242.082v31.236h-3.461v-31.236H308.568z"/>
		<path fill="#FF3333" d="M259.839,303.854v3.05h-18.806v-3.05H259.839z"/>
		<path fill="#FF3333" d="M278.645,303.854v3.05h-18.806v-3.05H278.645z"/>
		<path fill="#FF3333" d="M297.45,303.854v3.05h-18.806v-3.05H297.45z"/>
		<path fill="#FF3333" d="M308.568,277.223v31.236h-3.461v-31.236H308.568z"/>
		<path fill="#FF3333" d="M335.061,303.854v3.05h-18.806v-3.05H335.061z"/>
		<path fill="#FF3333" d="M353.868,303.854v3.05H335.06v-3.05H353.868z"/>
		<path fill="#FF3333" d="M372.672,303.854v3.05h-18.804v-3.05H372.672z"/>
		<path fill="#FF3333" d="M308.568,312.364V343.6h-3.461v-31.233L308.568,312.364L308.568,312.364z"/>
		<path fill="#FF3333" d="M308.568,347.503v31.235h-3.461v-31.235H308.568z"/>
		<path fill="#FF3333" d="M82.903,452.926v31.235h-3.462v-31.235H82.903L82.903,452.926z"/>
		<path fill="#FF3333" d="M82.903,488.064V519.3h-3.462v-31.234L82.903,488.064L82.903,488.064z"/>
		<path fill="#FF3333" d="M82.903,523.205v31.236h-3.462v-31.236H82.903z"/>
		<path fill="#FF3333" d="M109.395,549.835v3.05H90.589v-3.05H109.395z"/>
		<path fill="#FF3333" d="M128.201,549.835v3.05h-18.806v-3.05H128.201z"/>
		<path fill="#FF3333" d="M147.007,549.835v3.05h-18.806v-3.05H147.007z"/>
		<path fill="#FF3333" d="M165.811,549.835v3.05h-18.804v-3.05H165.811z"/>
		<path fill="#FF3333" d="M184.616,549.835v3.05h-18.805v-3.05H184.616z"/>
	</g>
	<g>
		<path fill="#FFFFFF" d="M353.868,57.871v3.05H335.06v-3.05H353.868z"/>
		<path fill="#FFFFFF" d="M372.672,57.871v3.05h-18.804v-3.05H372.672z"/>
		<path fill="#FFFFFF" d="M329.967,67.342h3.37l-11.985,25.669h-3.37L329.967,67.342z"/>
		<path fill="#FFFFFF" d="M340.156,67.342l11.985,25.669h-3.399l-11.988-25.669H340.156z"/>
		<path fill="#FFFFFF" d="M377.766,67.342l11.989,25.669h-3.401l-11.986-25.669H377.766z"/>
		<path fill="#FFFFFF" d="M311.162,102.482h3.37l-11.987,25.669h-3.372L311.162,102.482z"/>
		<path fill="#FFFFFF" d="M323.104,109.041h5.096v5.566h-5.096V109.041z M323.104,119.656h5.096v5.597h-5.096V119.656z"/>
		<path fill="#FFFFFF" d="M341.909,109.041h5.094v5.566h-5.094V109.041z M341.909,119.656h5.094v5.597h-5.094V119.656z"/>
		<path fill="#FFFFFF" d="M358.961,102.482l11.987,25.669h-3.401l-11.986-25.669H358.961z"/>
		<path fill="#FFFFFF" d="M396.572,102.482l11.985,25.669h-3.399l-11.987-25.669H396.572z"/>
		<path fill="#FFFFFF" d="M292.356,137.623h3.371l-11.988,25.669h-3.371L292.356,137.623z"/>
		<path fill="#FFFFFF" d="M304.298,144.182h5.095v5.566h-5.095V144.182z M304.298,154.797h5.095v5.597h-5.095V154.797z"/>
		<path fill="#FFFFFF" d="M323.104,144.182h5.096v5.566h-5.096V144.182z M323.104,154.797h5.096v5.597h-5.096V154.797z"/>
		<path fill="#FFFFFF" d="M341.909,144.182h5.094v5.566h-5.094V144.182z M341.909,154.797h5.094v5.597h-5.094V154.797z"/>
		<path fill="#FFFFFF" d="M360.715,144.182h5.094v5.566h-5.094V144.182z M360.715,154.797h5.094v5.597h-5.094V154.797z"/>
		<path fill="#FFFFFF" d="M377.766,137.623l11.989,25.669h-3.401l-11.986-25.669H377.766z"/>
		<path fill="#FFFFFF" d="M415.377,137.623l11.989,25.669h-3.402l-11.987-25.669H415.377z"/>
		<path fill="#FFFFFF" d="M273.55,172.764h3.371l-11.988,25.669h-3.371L273.55,172.764z"/>
		<path fill="#FFFFFF" d="M285.493,179.32h5.094v5.567h-5.094V179.32z M285.493,189.938h5.094v5.598h-5.094V189.938z"/>
		<path fill="#FFFFFF" d="M304.298,179.32h5.095v5.567h-5.095V179.32z M304.298,189.938h5.095v5.598h-5.095V189.938z"/>
		<path fill="#FFFFFF" d="M323.104,179.32h5.096v5.567h-5.096V179.32z M323.104,189.938h5.096v5.598h-5.096V189.938z"/>
		<path fill="#FFFFFF" d="M341.909,179.32h5.094v5.567h-5.094V179.32z M341.909,189.938h5.094v5.598h-5.094V189.938z"/>
		<path fill="#FFFFFF" d="M360.715,179.32h5.094v5.567h-5.094V179.32z M360.715,189.938h5.094v5.598h-5.094V189.938z"/>
		<path fill="#FFFFFF" d="M379.521,179.32h5.092v5.567h-5.092V179.32z M379.521,189.938h5.092v5.598h-5.092V189.938z"/>
		<path fill="#FFFFFF" d="M396.572,172.764l11.985,25.669h-3.399l-11.987-25.669H396.572z"/>
		<path fill="#FFFFFF" d="M434.184,172.764l11.988,25.669h-3.399l-11.989-25.669H434.184z"/>
		<path fill="#FFFFFF" d="M254.745,207.902h3.371l-11.988,25.67h-3.371L254.745,207.902z"/>
		<path fill="#FFFFFF" d="M266.688,214.462h5.095v5.566h-5.095V214.462z M266.688,225.078h5.095v5.597h-5.095V225.078z"/>
		<path fill="#FFFFFF" d="M285.493,214.462h5.094v5.566h-5.094V214.462z M285.493,225.078h5.094v5.597h-5.094V225.078z"/>
		<path fill="#FFFFFF" d="M304.298,214.462h5.095v5.566h-5.095V214.462z M304.298,225.078h5.095v5.597h-5.095V225.078z"/>
		<path fill="#FFFFFF" d="M323.104,214.462h5.096v5.566h-5.096V214.462z M323.104,225.078h5.096v5.597h-5.096V225.078z"/>
		<path fill="#FFFFFF" d="M341.909,214.462h5.094v5.566h-5.094V214.462z M341.909,225.078h5.094v5.597h-5.094V225.078z"/>
		<path fill="#FFFFFF" d="M360.715,214.462h5.094v5.566h-5.094V214.462z M360.715,225.078h5.094v5.597h-5.094V225.078z"/>
		<path fill="#FFFFFF" d="M379.521,214.462h5.092v5.566h-5.092V214.462z M379.521,225.078h5.092v5.597h-5.092V225.078z"/>
		<path fill="#FFFFFF" d="M398.325,214.462h5.095v5.566h-5.095V214.462z M398.325,225.078h5.095v5.597h-5.095V225.078z"/>
		<path fill="#FFFFFF" d="M415.377,207.902l11.989,25.67h-3.402l-11.987-25.67H415.377z"/>
		<path fill="#FFFFFF" d="M447.895,233.572v3.051h-18.806v-3.051H447.895z"/>
		<path fill="#FFFFFF" d="M452.988,207.902l11.987,25.67h-3.401l-11.986-25.67H452.988z"/>
		<path fill="#FFFFFF" d="M235.939,243.044h3.371l-11.988,25.669h-3.371L235.939,243.044z"/>
		<path fill="#FFFFFF" d="M247.881,249.602h5.095v5.567h-5.095V249.602z M247.881,260.217h5.095v5.599h-5.095V260.217z"/>
		<path fill="#FFFFFF" d="M266.688,249.602h5.095v5.567h-5.095V249.602z M266.688,260.217h5.095v5.599h-5.095V260.217z"/>
		<path fill="#FFFFFF" d="M341.909,249.602h5.094v5.567h-5.094V249.602z M341.909,260.217h5.094v5.599h-5.094V260.217z"/>
		<path fill="#FFFFFF" d="M360.715,249.602h5.094v5.567h-5.094V249.602z M360.715,260.217h5.094v5.599h-5.094V260.217z"/>
		<path fill="#FFFFFF" d="M379.521,249.602h5.092v5.567h-5.092V249.602z M379.521,260.217h5.092v5.599h-5.092V260.217z"/>
		<path fill="#FFFFFF" d="M398.325,249.602h5.095v5.567h-5.095V249.602z M398.325,260.217h5.095v5.599h-5.095V260.217z"/>
		<path fill="#FFFFFF" d="M423.996,243.044h3.37l-11.989,25.669h-3.37L423.996,243.044z"/>
		<path fill="#FFFFFF" d="M461.605,243.044h3.37l-11.987,25.669h-3.37L461.605,243.044z"/>
		<path fill="#FFFFFF" d="M217.133,278.184h3.371l-11.988,25.67h-3.37L217.133,278.184z"/>
		<path fill="#FFFFFF" d="M229.076,284.742h5.094v5.565h-5.094V284.742z M229.076,295.357h5.094v5.597h-5.094V295.357z"/>
		<path fill="#FFFFFF" d="M379.521,284.742h5.092v5.565h-5.092V284.742z M379.521,295.357h5.092v5.597h-5.092V295.357z"/>
		<path fill="#FFFFFF" d="M405.189,278.184h3.368l-11.985,25.67h-3.371L405.189,278.184z"/>
		<path fill="#FFFFFF" d="M442.8,278.184h3.372l-11.988,25.67h-3.371L442.8,278.184z"/>
		<path fill="#FFFFFF" d="M198.328,313.325h3.371l-11.989,25.668h-3.37L198.328,313.325z"/>
		<path fill="#FFFFFF" d="M210.271,319.883h5.094v5.566h-5.094V319.883z M210.271,330.498h5.094v5.6h-5.094V330.498z"/>
		<path fill="#FFFFFF" d="M229.076,319.883h5.094v5.566h-5.094V319.883z M229.076,330.498h5.094v5.6h-5.094V330.498z"/>
		<path fill="#FFFFFF" d="M386.383,313.325h3.372l-11.989,25.668h-3.368L386.383,313.325z"/>
		<path fill="#FFFFFF" d="M423.996,313.325h3.37l-11.989,25.668h-3.37L423.996,313.325z"/>
		<path fill="#FFFFFF" d="M179.523,348.464h3.37l-11.988,25.669h-3.37L179.523,348.464z"/>
		<path fill="#FFFFFF" d="M191.465,355.023h5.094v5.564h-5.094V355.023z M191.465,365.639h5.094v5.598h-5.094V365.639z"/>
		<path fill="#FFFFFF" d="M208.516,348.464l11.988,25.669h-3.401l-11.988-25.669H208.516z"/>
		<path fill="#FFFFFF" d="M229.076,355.023h5.094v5.564h-5.094V355.023z M229.076,365.639h5.094v5.598h-5.094V365.639z"/>
		<path fill="#FFFFFF" d="M247.881,355.023h5.095v5.564h-5.095V355.023z M247.881,365.639h5.095v5.598h-5.095V365.639z"/>
		<path fill="#FFFFFF" d="M266.688,355.023h5.095v5.564h-5.095V355.023z M266.688,365.639h5.095v5.598h-5.095V365.639z"/>
		<path fill="#FFFFFF" d="M341.909,355.023h5.094v5.564h-5.094V355.023z M341.909,365.639h5.094v5.598h-5.094V365.639z"/>
		<path fill="#FFFFFF" d="M367.578,348.464h3.37l-11.987,25.669h-3.37L367.578,348.464z"/>
		<path fill="#FFFFFF" d="M405.189,348.464h3.368l-11.985,25.669h-3.371L405.189,348.464z"/>
		<path fill="#FFFFFF" d="M170.905,383.604l11.988,25.671h-3.402l-11.987-25.671H170.905z"/>
		<path fill="#FFFFFF" d="M191.465,390.164h5.094v5.564h-5.094V390.164z M191.465,400.777h5.094v5.6h-5.094V400.777z"/>
		<path fill="#FFFFFF" d="M210.271,390.164h5.094v5.564h-5.094V390.164z M210.271,400.777h5.094v5.6h-5.094V400.777z"/>
		<path fill="#FFFFFF" d="M227.322,383.604l11.988,25.671h-3.401l-11.988-25.671H227.322z"/>
		<path fill="#FFFFFF" d="M247.881,390.164h5.095v5.564h-5.095V390.164z M247.881,400.777h5.095v5.6h-5.095V400.777z"/>
		<path fill="#FFFFFF" d="M266.688,390.164h5.095v5.564h-5.095V390.164z M266.688,400.777h5.095v5.6h-5.095V400.777z"/>
		<path fill="#FFFFFF" d="M285.493,390.164h5.094v5.564h-5.094V390.164z M285.493,400.777h5.094v5.6h-5.094V400.777z"/>
		<path fill="#FFFFFF" d="M304.298,390.164h5.095v5.564h-5.095V390.164z M304.298,400.777h5.095v5.6h-5.095V400.777z"/>
		<path fill="#FFFFFF" d="M323.104,390.164h5.096v5.564h-5.096V390.164z M323.104,400.777h5.096v5.6h-5.096V400.777z"/>
		<path fill="#FFFFFF" d="M348.771,383.604h3.37l-11.985,25.671h-3.372L348.771,383.604z"/>
		<path fill="#FFFFFF" d="M386.383,383.604h3.372l-11.989,25.671h-3.368L386.383,383.604z"/>
		<path fill="#FFFFFF" d="M189.71,418.745l11.989,25.67h-3.401l-11.988-25.67H189.71z"/>
		<path fill="#FFFFFF" d="M210.271,425.304h5.094v5.567h-5.094V425.304z M210.271,435.919h5.094v5.597h-5.094V435.919z"/>
		<path fill="#FFFFFF" d="M224.103,430.153c0-3.944,0.625-6.9,1.877-8.867c1.25-1.97,3.132-2.953,5.644-2.953
			c2.522,0,4.407,0.981,5.658,2.944c1.25,1.961,1.876,4.921,1.876,8.876c0,3.942-0.626,6.897-1.876,8.858
			c-1.251,1.963-3.136,2.944-5.658,2.944c-2.511,0-4.394-0.984-5.644-2.95C224.729,437.04,224.103,434.088,224.103,430.153z
			 M231.624,422.146c-1.038,0-1.793,0.635-2.274,1.905c-0.479,1.271-0.715,3.306-0.715,6.102c0,0.86,0.021,1.651,0.059,2.361
			l5.247-8.372c-0.009-0.029-0.021-0.061-0.031-0.091C233.433,422.781,232.67,422.146,231.624,422.146z M229.35,436.239
			c0.48,1.271,1.236,1.907,2.274,1.907c1.046,0,1.809-0.638,2.287-1.907c0.479-1.271,0.718-3.3,0.718-6.086
			c0-1.061-0.037-2.003-0.107-2.836l-5.323,8.479C229.25,435.958,229.298,436.108,229.35,436.239z"/>
		<path fill="#FFFFFF" d="M246.127,418.745l11.988,25.67h-3.401l-11.989-25.67H246.127z"/>
		<path fill="#FFFFFF" d="M266.688,425.304h5.095v5.567h-5.095V425.304z M266.688,435.919h5.095v5.597h-5.095V435.919z"/>
		<path fill="#FFFFFF" d="M285.493,425.304h5.094v5.567h-5.094V425.304z M285.493,435.919h5.094v5.597h-5.094V435.919z"/>
		<path fill="#FFFFFF" d="M304.298,425.304h5.095v5.567h-5.095V425.304z M304.298,435.919h5.095v5.597h-5.095V435.919z"/>
		<path fill="#FFFFFF" d="M329.967,418.745h3.37l-11.985,25.67h-3.37L329.967,418.745z"/>
		<path fill="#FFFFFF" d="M367.578,418.745h3.37l-11.987,25.67h-3.37L367.578,418.745z"/>
		<path fill="#FFFFFF" d="M208.516,453.885l11.988,25.669h-3.401l-11.988-25.669H208.516z"/>
		<path fill="#FFFFFF" d="M229.076,460.442h5.094v5.566h-5.094V460.442z M229.076,471.06h5.094v5.6h-5.094V471.06z"/>
		<path fill="#FFFFFF" d="M247.881,460.442h5.095v5.566h-5.095V460.442z M247.881,471.06h5.095v5.6h-5.095V471.06z"/>
		<path fill="#FFFFFF" d="M264.934,453.885l11.988,25.669h-3.401l-11.989-25.669H264.934z"/>
		<path fill="#FFFFFF" d="M285.493,460.442h5.094v5.566h-5.094V460.442z M285.493,471.06h5.094v5.6h-5.094V471.06z"/>
		<path fill="#FFFFFF" d="M311.162,453.885h3.37l-11.987,25.669h-3.372L311.162,453.885z"/>
		<path fill="#FFFFFF" d="M348.771,453.885h3.37l-11.985,25.669h-3.372L348.771,453.885z"/>
		<path fill="#FFFFFF" d="M227.322,489.026l11.988,25.669h-3.401l-11.988-25.669H227.322z"/>
		<path fill="#FFFFFF" d="M247.881,495.585h5.095v5.567h-5.095V495.585z M247.881,506.199h5.095v5.598h-5.095V506.199z"/>
		<path fill="#FFFFFF" d="M266.688,495.585h5.095v5.567h-5.095V495.585z M266.688,506.199h5.095v5.598h-5.095V506.199z"/>
		<path fill="#FFFFFF" d="M292.356,489.026h3.371l-11.988,25.669h-3.371L292.356,489.026z"/>
		<path fill="#FFFFFF" d="M329.967,489.026h3.37l-11.985,25.669h-3.37L329.967,489.026z"/>
		<path fill="#FFFFFF" d="M246.127,524.166l11.988,25.669h-3.401l-11.989-25.669H246.127L246.127,524.166z"/>
		<path fill="#FFFFFF" d="M273.55,524.166h3.371l-11.988,25.669h-3.371L273.55,524.166z"/>
		<path fill="#FFFFFF" d="M297.45,549.835v3.05h-18.806v-3.05H297.45z"/>
		<path fill="#FFFFFF" d="M311.162,524.166h3.37l-11.987,25.669h-3.372L311.162,524.166z"/>
	</g>
	<g>
		<path fill="#FF214C" d="M534.234,452.926v31.235h-3.463v-31.235H534.234L534.234,452.926z"/>
		<path fill="#FF214C" d="M534.234,488.064V519.3h-3.463v-31.234L534.234,488.064L534.234,488.064z"/>
		<path fill="#FF214C" d="M447.895,549.835v3.05h-18.806v-3.05H447.895z"/>
		<path fill="#FF214C" d="M466.701,549.835v3.05h-18.808v-3.05H466.701z"/>
		<path fill="#FF214C" d="M485.506,549.835v3.05h-18.805v-3.05H485.506z"/>
		<path fill="#FF214C" d="M504.312,549.835v3.05h-18.809v-3.05H504.312z"/>
		<path fill="#FF214C" d="M523.116,549.835v3.05h-18.804v-3.05H523.116z"/>
		<path fill="#FF214C" d="M534.234,523.205v31.236h-3.463v-31.236H534.234z"/>
	</g>
</g>
</svg>
